<svg version="1.2" xmlns="http://www.w3.org/2000/svg" viewBox="0 0 28 53" width="28" height="53"><style>.a{fill:#fff}</style><path fill-rule="evenodd" class="a" d="m23.7 31.3h3.7c0 7-5.2 12.7-11.9 13.6v7.9h-3.7v-7.9c-6.7-0.9-11.9-6.6-11.9-13.6h3.7c0 5 3.6 9.1 8.2 10v-7.4c-3-1.7-9-6.4-9-16.1 0-13.2 10.9-17 10.9-17 0 0 10.8 3.4 10.8 17 0 10.7-5.9 14.8-9 16.3v7.2c4.7-0.9 8.2-5 8.2-10zm-12.9-2.7c1.1 1.1 2.2 1.8 3 2.3 0.8-0.4 2-1.1 3.1-2.1 2.6-2.5 4-6.3 4-11 0-4.5-1.4-8.1-4.1-10.8-1.1-1.1-2.3-1.8-3.1-2.2-0.8 0.4-2 1.2-3.1 2.4-2.8 2.7-4.1 6.3-4.1 10.6 0 4.4 1.4 8 4.3 10.8z"/></svg>